HIERARCHY
ROOT SpineBase
{
  OFFSET 0.000000 0.000000 0.000000
  CHANNELS 6 Xposition Yposition Zposition Zrotation Xrotation Yrotation
  JOINT SpineMid
  {
    OFFSET 0.000000 29.529634 0.000000
    CHANNELS 3 Zrotation Xrotation Yrotation
    JOINT SpineShoulder
    {
      OFFSET 0.216205 21.874401 -0.795078
      CHANNELS 3 Zrotation Xrotation Yrotation
      JOINT Neck
      {
        OFFSET 0.029689 7.275351 -0.542951
        CHANNELS 3 Zrotation Xrotation Yrotation
        JOINT Head
        {
          OFFSET -3.406274 14.034044 -1.328208
          CHANNELS 3 Zrotation Xrotation Yrotation
          End Site
          {
            OFFSET 0 0 0
          }
        }
      }
      JOINT ShoulderLeft
      {
        OFFSET -16.386682 -3.942023 2.885840
        CHANNELS 3 Zrotation Xrotation Yrotation
        JOINT ElbowLeft
        {
          OFFSET -1.802556 -20.787616 -1.827738
          CHANNELS 3 Zrotation Xrotation Yrotation
          JOINT WristLeft
          {
            OFFSET 2.683995 10.619475 -22.173130
            CHANNELS 3 Zrotation Xrotation Yrotation
            JOINT HandLeft
            {
              OFFSET -2.863998 4.726245 -4.212197
              CHANNELS 3 Zrotation Xrotation Yrotation
              JOINT HandTipLeft
              {
                OFFSET -0.701863 2.558841 -3.200191
                CHANNELS 3 Zrotation Xrotation Yrotation
                End Site
                {
                  OFFSET 0 0 0
                }
              }
              JOINT ThumbLeft
              {
                OFFSET -4.047602 3.150305 1.036776
                CHANNELS 3 Zrotation Xrotation Yrotation
                End Site
                {
                  OFFSET 0 0 0
                }
              }
            }
          }
        }
      }
      JOINT ShoulderRight
      {
        OFFSET 15.034401 -2.058088 -5.378428
        CHANNELS 3 Zrotation Xrotation Yrotation
        JOINT ElbowRight
        {
          OFFSET 6.359290 -23.212912 0.234035
          CHANNELS 3 Zrotation Xrotation Yrotation
          JOINT WristRight
          {
            OFFSET -4.885472 -20.441745 -6.800566
            CHANNELS 3 Zrotation Xrotation Yrotation
            JOINT HandRight
            {
              OFFSET -2.662171 -5.978642 -0.678252
              CHANNELS 3 Zrotation Xrotation Yrotation
              JOINT HandTipRight
              {
                OFFSET -0.165600 -5.874342 -0.633516
                CHANNELS 3 Zrotation Xrotation Yrotation
                End Site
                {
                  OFFSET 0 0 0
                }
              }
              JOINT ThumbRight
              {
                OFFSET -3.237597 1.028881 -1.392783
                CHANNELS 3 Zrotation Xrotation Yrotation
                End Site
                {
                  OFFSET 0 0 0
                }
              }
            }
          }
        }
      }
    }
  }
  JOINT HipLeft
  {
    OFFSET -6.801765 0.646568 -1.628629
    CHANNELS 3 Zrotation Xrotation Yrotation
    JOINT KneeLeft
    {
      OFFSET 2.704072 -28.009272 5.365628
      CHANNELS 3 Zrotation Xrotation Yrotation
      JOINT AnkleLeft
      {
        OFFSET 0.527311 -31.564307 4.437463
        CHANNELS 3 Zrotation Xrotation Yrotation
        JOINT FootLeft
        {
          OFFSET 5.448729 -6.111676 -5.713986
          CHANNELS 3 Zrotation Xrotation Yrotation
          End Site
          {
            OFFSET 0 0 0
          }
        }
      }
    }
  }
  JOINT HipRight
  {
    OFFSET 7.629290 1.344344 -5.041920
    CHANNELS 3 Zrotation Xrotation Yrotation
    JOINT KneeRight
    {
      OFFSET 4.793690 -24.833600 2.040256
      CHANNELS 3 Zrotation Xrotation Yrotation
      JOINT AnkleRight
      {
        OFFSET -0.035978 -36.536597 4.682954
        CHANNELS 3 Zrotation Xrotation Yrotation
        JOINT FootRight
        {
          OFFSET -5.153034 -6.315795 -3.618922
          CHANNELS 3 Zrotation Xrotation Yrotation
          End Site
          {
            OFFSET 0 0 0
          }
        }
      }
    }
  }
}
MOTION
Frames: 13
Frame Time: 0.033333
-39.208064 68.553814 338.658425 -3.880836 3.063547 20.524688 0.374264 -0.070009 -20.566825 -0.399177 -0.307067 -0.166363 1.439838 4.782355 2.078776 0.000000 0.000000 0.000000 1.196611 -5.318947 0.663525 -79.643168 -80.694376 -75.853480 -30.981745 17.897610 -31.827309 37.761627 -15.853531 10.788386 0.000000 0.000000 0.000000 0.000000 0.000000 0.000000 -4.485497 6.028072 3.047082 -1.427102 -8.683975 -0.206786 -6.621191 -9.890638 1.589051 -18.752979 18.245376 4.712709 0.000000 0.000000 0.000000 0.000000 0.000000 0.000000 0.762813 -3.550871 -20.817251 5.201318 2.210106 0.805398 -2.696146 -3.520087 -2.344372 0.000000 0.000000 0.000000 -0.660406 -3.446225 -20.890794 6.488198 -0.462737 0.748118 -3.258591 -1.171184 1.370872 0.000000 0.000000 0.000000
-39.288537 68.522634 338.597913 -3.950715 3.143193 20.933266 0.413760 -0.084485 -20.971001 -0.399258 -0.303178 -0.167229 1.895667 4.206256 1.982711 0.000000 0.000000 0.000000 1.350412 -5.790756 0.688726 -76.894812 -81.028035 -72.813612 -29.935175 22.742217 -28.550700 39.743701 -22.139658 10.860600 0.000000 0.000000 0.000000 0.000000 0.000000 0.000000 -3.771694 5.705831 2.940501 -2.681397 -8.423155 -0.059888 -6.859720 -8.807043 1.119356 -19.294565 21.433268 6.203800 0.000000 0.000000 0.000000 0.000000 0.000000 0.000000 0.918996 -3.671182 -21.181119 4.963875 2.214574 0.765289 -1.560684 -2.311527 -2.096332 0.000000 0.000000 0.000000 -0.424936 -3.647556 -21.268298 6.159685 -0.594699 0.724480 -2.459977 -0.723409 0.722930 0.000000 0.000000 0.000000
-39.353720 68.481041 338.553801 -3.983278 3.191969 21.326441 0.436650 -0.077723 -21.361446 -0.410694 -0.291875 -0.168530 2.404917 3.645387 1.897933 0.000000 0.000000 0.000000 1.468922 -6.064804 0.702806 -71.169780 -81.674402 -66.740467 -25.421637 26.005440 -27.621775 39.793989 -27.046144 12.490966 0.000000 0.000000 0.000000 0.000000 0.000000 0.000000 -3.235634 5.686970 2.944730 -3.336663 -8.732828 -0.058369 -7.597671 -5.219049 0.209432 -19.833281 17.964385 6.290152 0.000000 0.000000 0.000000 0.000000 0.000000 0.000000 1.067135 -3.716608 -21.526031 4.673800 2.089031 0.718071 -0.983254 -1.892662 -2.110633 0.000000 0.000000 0.000000 -0.192386 -3.765569 -21.618500 5.783590 -0.787390 0.689283 -3.490853 -0.793689 1.597687 0.000000 0.000000 0.000000
-39.394506 68.437420 338.521127 -3.983866 3.221118 21.657901 0.458163 -0.064938 -21.690600 -0.419655 -0.278850 -0.168396 3.041051 3.158320 1.845255 0.000000 0.000000 0.000000 1.533963 -6.330429 0.714809 -65.216818 -81.632070 -60.661476 -24.591521 24.831427 -28.682310 39.145900 -23.827268 13.210800 0.000000 0.000000 0.000000 0.000000 0.000000 0.000000 -2.892435 5.763301 2.979296 -3.772463 -9.207204 -0.080764 -8.189749 -4.014036 0.015461 -19.065961 17.371956 6.166844 0.000000 0.000000 0.000000 0.000000 0.000000 0.000000 1.132782 -3.729404 -21.829196 4.468599 1.949416 0.685810 -0.822301 -1.570790 -1.910516 0.000000 0.000000 0.000000 -0.032060 -3.815915 -21.912530 5.556972 -1.013157 0.668113 -1.739293 -0.307896 0.350530 0.000000 0.000000 0.000000
-39.438264 68.395464 338.491657 -3.980251 3.255114 21.896055 0.490944 -0.075940 -21.925377 -0.425204 -0.271934 -0.167160 3.652551 2.701113 1.798369 0.000000 0.000000 0.000000 1.561924 -6.580396 0.724798 -58.257382 -81.446744 -53.585696 -26.973359 20.085975 -31.622015 37.361493 -16.247734 12.963915 0.000000 0.000000 0.000000 0.000000 0.000000 0.000000 -2.581083 5.814867 2.997521 -4.094861 -9.495847 -0.122709 -8.648641 -3.604805 0.016672 -17.625137 17.944438 5.995563 0.000000 0.000000 0.000000 0.000000 0.000000 0.000000 1.180174 -3.779685 -22.045332 4.190650 1.823625 0.645706 -0.362464 -1.149187 -1.828176 0.000000 0.000000 0.000000 0.051162 -3.821201 -22.121717 5.509355 -1.228055 0.663096 -1.746348 -0.471611 0.583440 0.000000 0.000000 0.000000
-39.475039 68.369122 338.473824 -3.964506 3.273084 22.074629 0.517548 -0.093082 -22.101337 -0.435566 -0.270651 -0.166302 4.377519 2.467116 1.813765 0.000000 0.000000 0.000000 1.643305 -6.804918 0.735005 -53.947400 -81.267687 -49.110392 -29.528642 18.165696 -32.734117 39.422001 -10.766139 13.223807 0.000000 0.000000 0.000000 0.000000 0.000000 0.000000 -2.320905 5.755708 2.971248 -4.143244 -9.626971 -0.141296 -9.218933 -3.883038 0.250092 -17.073230 20.644189 6.543153 0.000000 0.000000 0.000000 0.000000 0.000000 0.000000 1.222041 -3.803497 -22.203730 3.798507 1.626880 0.590938 0.328747 -0.582627 -1.759530 0.000000 0.000000 0.000000 0.048632 -3.857284 -22.299013 5.516543 -1.268445 0.669006 -1.769227 -0.905134 0.977076 0.000000 0.000000 0.000000
-39.452453 68.342343 338.482094 -3.857978 3.257988 22.106813 0.558540 -0.095483 -22.130336 -0.434932 -0.277826 -0.160513 4.941599 2.371403 1.842148 0.000000 0.000000 0.000000 1.655302 -7.040376 0.736836 -47.851956 -80.523187 -42.906197 -37.387263 15.857368 -33.703448 45.081742 -4.353525 11.723419 0.000000 0.000000 0.000000 0.000000 0.000000 0.000000 -2.211096 5.640039 2.909900 -4.058572 -9.682982 -0.137059 -9.542788 -4.074846 0.457912 -16.414331 21.855049 6.568235 0.000000 0.000000 0.000000 0.000000 0.000000 0.000000 1.184414 -3.755191 -22.226795 3.412726 1.413756 0.537031 0.823820 -0.212717 -1.699684 0.000000 0.000000 0.000000 0.133424 -3.650775 -22.271864 5.330287 -1.599315 0.627648 -2.397523 -1.889973 2.330932 0.000000 0.000000 0.000000
-39.454046 68.320066 338.535758 -3.741135 3.187621 22.051211 0.599123 -0.074798 -22.073255 -0.425383 -0.280721 -0.153649 5.415101 2.331698 1.866570 0.000000 0.000000 0.000000 1.648013 -7.262783 0.739417 -45.375419 -80.542832 -40.170392 -44.938384 17.084206 -32.099279 50.605796 -2.815506 9.773741 0.000000 0.000000 0.000000 0.000000 0.000000 0.000000 -2.249365 5.520122 2.841259 -3.877163 -9.644916 -0.110680 -9.564839 -4.675079 0.715948 -17.065371 22.558503 6.776242 0.000000 0.000000 0.000000 0.000000 0.000000 0.000000 1.278480 -3.621106 -22.130266 3.162869 1.233932 0.490284 0.904391 0.107944 -1.471158 0.000000 0.000000 0.000000 0.147944 -3.408848 -22.180424 5.241424 -1.740432 0.597543 -1.859489 -2.787103 2.812750 0.000000 0.000000 0.000000
-39.484293 68.301363 338.601926 -3.641476 3.096533 22.060340 0.636447 -0.058506 -22.081752 -0.402480 -0.290759 -0.146373 5.774423 2.292101 1.870412 0.000000 0.000000 0.000000 1.660520 -7.404594 0.739632 -46.596611 -82.069413 -40.802755 -44.143632 20.151351 -29.927964 47.666884 -6.284372 10.207193 0.000000 0.000000 0.000000 0.000000 0.000000 0.000000 -2.098626 5.535804 2.806000 -4.001987 -9.785363 -0.108389 -8.948267 -4.487359 0.712679 -18.131693 18.945161 5.957141 0.000000 0.000000 0.000000 0.000000 0.000000 0.000000 1.464396 -3.468271 -22.077888 2.903857 1.102936 0.435942 0.896132 0.240757 -1.310275 0.000000 0.000000 0.000000 -0.174208 -3.348788 -22.262307 5.596770 -1.319510 0.646535 -1.036443 -3.081826 2.286744 0.000000 0.000000 0.000000
-39.521834 68.286844 338.679075 -3.548430 2.986699 22.115971 0.675304 -0.043333 -22.137142 -0.364645 -0.297952 -0.137700 6.003162 2.275826 1.862078 0.000000 0.000000 0.000000 1.732025 -7.434381 0.732295 -49.843673 -82.898992 -43.636594 -38.899259 19.861952 -31.262021 41.585443 -8.533725 11.172095 0.000000 0.000000 0.000000 0.000000 0.000000 0.000000 -1.977056 5.492546 2.746498 -3.996600 -9.873721 -0.088603 -7.985693 -5.101737 0.926640 -19.755570 17.653392 5.726690 0.000000 0.000000 0.000000 0.000000 0.000000 0.000000 1.633838 -3.315283 -22.080843 2.730517 1.071407 0.395185 0.716775 0.233878 -1.120569 0.000000 0.000000 0.000000 -0.117018 -3.231959 -22.303397 5.442542 -1.189711 0.624669 -0.474423 -3.321675 2.079610 0.000000 0.000000 0.000000
-39.567823 68.264894 338.789974 -3.455284 2.885343 22.097987 0.718685 -0.014961 -22.118479 -0.320261 -0.309614 -0.128433 6.168846 2.264327 1.853776 0.000000 0.000000 0.000000 1.783590 -7.474486 0.723935 -53.406245 -82.907375 -47.028699 -33.684553 16.012869 -34.874043 35.496493 -10.125645 11.762896 0.000000 0.000000 0.000000 0.000000 0.000000 0.000000 -1.900900 5.326029 2.652020 -3.927040 -9.912624 -0.017643 -7.548377 -6.331559 1.390089 -21.281292 21.840206 7.057462 0.000000 0.000000 0.000000 0.000000 0.000000 0.000000 1.846523 -3.122621 -21.998095 2.501296 0.907878 0.341739 0.665056 0.379069 -0.942175 0.000000 0.000000 0.000000 0.138515 -3.062602 -22.219234 5.078683 -1.269224 0.568829 0.095312 -3.604355 2.007722 0.000000 0.000000 0.000000
-39.610728 68.244576 338.890043 -3.357533 2.768404 22.148638 0.761925 0.002933 -22.168676 -0.280673 -0.323329 -0.119472 6.074438 2.446620 1.854906 0.000000 0.000000 0.000000 1.802532 -7.478210 0.714225 -56.035468 -81.992137 -49.770996 -25.913566 9.137652 -39.634047 28.538899 -12.423260 13.266585 0.000000 0.000000 0.000000 0.000000 0.000000 0.000000 -1.832438 5.269239 2.586202 -3.808822 -10.037239 0.012020 -6.717663 -5.960854 1.379799 -24.615369 21.661988 8.080214 0.000000 0.000000 0.000000 0.000000 0.000000 0.000000 2.052413 -2.898044 -21.986970 2.315970 0.694763 0.293610 0.695945 0.611459 -0.827481 0.000000 0.000000 0.000000 0.341061 -2.927137 -22.224194 4.763704 -1.283459 0.525513 -0.132130 -3.928959 2.412264 0.000000 0.000000 0.000000
-39.648654 68.225831 338.977403 -3.267009 2.659950 22.195681 0.787199 0.010602 -22.216059 -0.258591 -0.338061 -0.113221 5.950305 2.636724 1.852497 0.000000 0.000000 0.000000 1.842735 -7.471192 0.707926 -57.534195 -81.062912 -51.388183 -20.803633 4.664739 -41.904204 25.731998 -13.673249 14.610175 0.000000 0.000000 0.000000 0.000000 0.000000 0.000000 -1.713036 5.235641 2.529074 -3.642217 -10.129271 0.016977 -6.706178 -5.648795 1.451567 -26.397595 20.924545 8.466139 0.000000 0.000000 0.000000 0.000000 0.000000 0.000000 2.273619 -2.684110 -21.969732 2.157910 0.475736 0.248165 0.351788 0.631153 -0.601510 0.000000 0.000000 0.000000 0.562629 -2.776651 -22.218748 4.408473 -1.358329 0.473102 -2.280274 -4.596485 4.205530 0.000000 0.000000 0.000000
